<svg xmlns="http://www.w3.org/2000/svg" width="15" height="22">
    <path fill="#9C9C9C" fill-rule="evenodd" d="M11.452 14.692c-1.035 1.435-2.136 2.824-3.215 4.228-.251.327-.59.333-.844.028-1.882-2.264-3.64-4.613-5.086-7.174-.601-1.065-1.143-2.158-1.413-3.357-.305-1.354-.066-2.657.535-3.881C2.544 2.262 4.404.946 6.946.573c.294-.043.595-.045.892-.066 3.462.027 6.438 2.588 6.931 5.934.183 1.24-.082 2.385-.565 3.508-.726 1.688-1.678 3.255-2.752 4.743zm2.289-8.433c-.51-2.42-2.537-4.337-4.998-4.701-2.558-.379-5.058.832-6.267 3.07-.712 1.318-.982 2.713-.468 4.16.257.726.58 1.436.937 2.12.921 1.761 2.071 3.381 3.264 4.971.51.679 1.039 1.343 1.58 2.041.08-.093.136-.148.182-.21.913-1.214 1.848-2.412 2.73-3.647 1.004-1.407 1.907-2.875 2.603-4.459.472-1.076.685-2.174.437-3.345zM7.886 9.766C6.269 9.757 4.973 8.475 4.98 6.89c.006-1.594 1.318-2.864 2.949-2.855 1.601.009 2.896 1.308 2.886 2.897-.009 1.564-1.331 2.842-2.929 2.834zm-.017-4.771c-1.075.009-1.923.887-1.903 1.97.019 1.023.913 1.859 1.968 1.84 1.052-.019 1.912-.889 1.895-1.915-.018-1.069-.882-1.904-1.96-1.895zM1.404 18.002c.652-.562 1.448-.838 2.264-1.067.272-.076.551-.131.828-.188.309-.064.55.08.618.359.064.266-.11.502-.411.585-.573.159-1.153.3-1.71.502-.328.119-.641.312-.921.522-.433.326-.423.668-.004 1.009.559.453 1.231.669 1.914.852 1.41.376 2.851.479 4.306.442 1.323-.033 2.63-.18 3.884-.614.422-.146.814-.375 1.218-.567.033-.015.06-.041.089-.063.493-.386.497-.732-.001-1.11-.571-.433-1.243-.645-1.926-.828-.204-.055-.413-.089-.617-.14-.279-.071-.427-.293-.384-.563.04-.251.265-.432.54-.381 1.094.203 2.158.496 3.047 1.199.93.734.938 1.768.024 2.523-.674.557-1.484.834-2.319 1.052-1.317.343-2.663.456-4.101.474-1.601-.027-3.263-.176-4.859-.745-.529-.189-1.03-.433-1.462-.797-.867-.733-.876-1.715-.017-2.456z"/>
</svg>
