<svg xmlns="http://www.w3.org/2000/svg" width="17" height="17">
    <path fill="#9C9C9C" fill-rule="evenodd" d="M15.633 8.196c-.884-3.833-3.242-6.113-7.098-6.875L8.717 0c3.112.127 7.49 3.009 8.283 7.96l-1.367.236zm-2.051-.015l-1.381.242c-.476-2.083-1.749-3.311-3.841-3.721l.192-1.381c2.451.201 4.651 2.327 5.03 4.86zM5.843 9.388c.993 1.215 2.144 2.259 3.577 2.955.203.098.333.093.491-.074.373-.394.759-.778 1.15-1.154.606-.584 1.279-.591 1.881-.008.678.658 1.347 1.326 2.006 2.002.586.6.587 1.279.011 1.883-.423.445-.857.88-1.296 1.309-.446.436-.992.622-1.719.61l-.022.089c-.718-.18-1.471-.275-2.146-.555-4.451-1.848-7.608-4.996-9.37-9.502C.09 6.134-.119 5.28.077 4.414c.093-.405.32-.811.582-1.139.367-.458.821-.847 1.245-1.258.629-.611 1.31-.619 1.936-.009.667.652 1.328 1.311 1.976 1.981.588.607.585 1.272.002 1.881-.375.393-.759.778-1.154 1.15-.167.158-.205.309-.081.495.415.628.785 1.293 1.26 1.873z"/>
</svg>
